<svg xmlns="http://www.w3.org/2000/svg" width="2100" height="1560" viewBox="0 0 2100 1560">
<style>
  @import url('https://fonts.googleapis.com/css2?family=JetBrains+Mono:wght@400;500;600;700&amp;display=swap');
  text { font-family: 'JetBrains Mono', 'SF Mono', 'Cascadia Code', 'Consolas', monospace; }
  .t   { fill:#ffffff; font-size:11px; font-weight:600; }
  .t12 { fill:#ffffff; font-size:12px; font-weight:700; }
  .s   { fill:#94a3b8; font-size:9px; }
  .s8  { fill:#94a3b8; font-size:8px; }
  .n   { fill:#cbd5e1; font-size:8.5px; }
  .warn{ fill:#fb7185; font-size:8.5px; }
  .ok  { fill:#34d399; font-size:8.5px; }
  .amb { fill:#fbbf24; font-size:8.5px; }
  .cy  { fill:#22d3ee; font-size:9px; font-weight:600; }
  .new { fill:#c4b5fd; font-size:8.5px; font-weight:600; }
</style>
<defs>
  <pattern id="grid" width="40" height="40" patternUnits="userSpaceOnUse">
    <path d="M 40 0 L 0 0 0 40" fill="none" stroke="#1e293b" stroke-width="0.5"/>
  </pattern>
</defs>
<rect width="100%" height="100%" fill="#0f172a"/>
<rect width="100%" height="100%" fill="url(#grid)"/>
<text x="40" y="42" fill="#ffffff" font-size="17" font-weight="700">Tầng dữ liệu ver 2 — nguồn, kho, luồng chạy · cập nhật 2026-08-19</text>
<text x="40" y="63" class="s">quant_v2 · 197 mã đang cập nhật · giá 2000-07-28 → 2026-08-12 · 621.941 dòng ở tầng đọc · ver 1 đã TẮT job hằng ngày 2026-08-05</text>
<text x="40" y="79" class="new">Tím = thêm hoặc đổi ngày 19/08. Bốn thay đổi, đều từ đo trực tiếp — không cái nào là chép lại tài liệu cũ.</text>
<rect x="50" y="100" width="2000" height="300" rx="12" fill="none" stroke="#22d3ee" stroke-width="1" stroke-dasharray="12,4"/>
<text x="64" y="118" class="cy" fill="#22d3ee">① NGUỒN — kiểm kê theo CỬA (meta.vendor_door). Cột 'ver 2 gọi?' đọc từ code thật, không từ đặc tả</text>
<rect x="70" y="132" width="376" height="250" rx="6" fill="#0f172a"/>
<rect x="70" y="132" width="376" height="250" rx="6" fill="rgba(59,130,246,0.3)" stroke="#60a5fa" stroke-width="2"/>
<text x="258" y="152" class="t" text-anchor="middle">SSI · iBoard</text>
<text x="258" y="166" class="s8" text-anchor="middle">statistics/charts/history</text>
<text x="80" y="184" class="n">SSI_IBOARD · ADJUSTED · kVND</text>
<text x="80" y="196.5" class="n">666.957 dòng · từ 2000-07-28</text>
<text x="80" y="209.0" class="ok">VAI TRÒ: CHÍNH — 191/197 mã</text>
<text x="80" y="221.5" class="s8">không token · không phân trang</text>
<text x="80" y="234.0" class="new">URL KHÔNG có đoạn /vN/</text>
<text x="80" y="246.5" class="warn">⚠ chỉ trả lịch sử của sàn ĐANG</text>
<text x="80" y="259.0" class="warn">  niêm yết ⇒ mã chuyển sàn mất</text>
<text x="80" y="271.5" class="warn">  lịch sử cũ (ACB 71% · POM 97%)</text>
<text x="80" y="284.0" class="s8">ver 2 gọi: load_iboard.py</text>
<text x="80" y="296.5" class="s8">           load_index.py</text>
<rect x="466" y="132" width="376" height="250" rx="6" fill="#0f172a"/>
<rect x="466" y="132" width="376" height="250" rx="6" fill="rgba(59,130,246,0.3)" stroke="#60a5fa" stroke-width="2"/>
<text x="654" y="152" class="t" text-anchor="middle">SSI · iBoard</text>
<text x="654" y="166" class="s8" text-anchor="middle">statistics/company/stock-price</text>
<text x="476" y="184" class="n">SSI_SP · RAW · VND</text>
<text x="476" y="196.5" class="n">581.055 dòng · từ 2000-07-28</text>
<text x="476" y="209.0" class="amb">⭐ TRẦN/SÀN — trọng tài duy nhất</text>
<text x="476" y="221.5" class="s8">+ close thô · GTGD · khối ngoại</text>
<text x="476" y="234.0" class="new">URL KHÔNG có đoạn /vN/</text>
<text x="476" y="246.5" class="warn">⚠ TRỘN THANG trong một dòng:</text>
<text x="476" y="259.0" class="warn">  O/H/L đã điều chỉnh, close thô</text>
<text x="476" y="271.5" class="warn">  L≤close≤H đúng 0/250 (E0056)</text>
<text x="476" y="284.0" class="s8">ver 2 gọi: load_ssi_sp.py</text>
<text x="476" y="296.5" class="s8">  code đặt tên open_adj/high_adj</text>
<rect x="862" y="132" width="376" height="250" rx="6" fill="#0f172a"/>
<rect x="862" y="132" width="376" height="250" rx="6" fill="rgba(52,211,153,0.3)" stroke="#34d399" stroke-width="2"/>
<text x="1050" y="152" class="t" text-anchor="middle">SSI · FastConnect</text>
<text x="1050" y="166" class="s8" text-anchor="middle">api/v2/Market/DailyStockPrice</text>
<text x="872" y="184" class="n">SSI · RAW · VND · Bearer token</text>
<text x="872" y="196.5" class="n">31 trường · chỉ sâu 2020-02-26</text>
<text x="872" y="209.0" class="ok">⭐ O/H/L THÔ THẬT — mọi sàn</text>
<text x="872" y="221.5" class="new">URL CÓ /api/v2/ ⇒ đổi bản thấy được</text>
<text x="872" y="234.0" class="new">ver 2 ghi 20/31 trường:</text>
<text x="872" y="246.5" class="new">  7 cột riêng + 13 vào extra JSON</text>
<text x="872" y="259.0" class="s8">không ghi: Market · Time · 4 trường</text>
<text x="872" y="271.5" class="s8">  suy được (NetBuySell…, TotalTraded…)</text>
<text x="872" y="284.0" class="s8">ver 2 gọi: load_ssi_fc_price.py</text>
<text x="872" y="296.5" class="s8">           load_index_member.py</text>
<rect x="1258" y="132" width="376" height="250" rx="6" fill="#0f172a"/>
<rect x="1258" y="132" width="376" height="250" rx="6" fill="rgba(251,191,36,0.3)" stroke="#fbbf24" stroke-width="2"/>
<text x="1446" y="152" class="t" text-anchor="middle">DNSE · entrade</text>
<text x="1446" y="166" class="s8" text-anchor="middle">chart-api/v2/ohlcs/stock</text>
<text x="1268" y="184" class="n">DNSE · ADJUSTED · kVND</text>
<text x="1268" y="196.5" class="n">591.941 dòng · từ 2012-03-19</text>
<text x="1268" y="209.0" class="amb">VAI TRÒ: ĐỐI CHỨNG — 6/197 mã</text>
<text x="1268" y="221.5" class="new">URL CÓ /chart-api/v2/</text>
<text x="1268" y="234.0" class="s8">7 khoá, mảng song song: t o h l c v</text>
<text x="1268" y="246.5" class="warn">KHÔNG có đường bật raw — đã thử</text>
<text x="1268" y="259.0" class="warn">  3 tham số, trả y hệt (E0017)</text>
<text x="1268" y="271.5" class="warn">bỏ hẳn ngày không giao dịch</text>
<text x="1268" y="284.0" class="new">from==to ⇒ MẢNG RỖNG, HTTP 200</text>
<text x="1268" y="296.5" class="s8">ver 2 gọi: daily_update.py --source</text>
<rect x="1654" y="132" width="376" height="250" rx="6" fill="#0f172a"/>
<rect x="1654" y="132" width="376" height="250" rx="6" fill="rgba(167,139,250,0.3)" stroke="#a78bfa" stroke-width="2"/>
<text x="1842" y="152" class="t" text-anchor="middle">Vietcap · VCI IQ</text>
<text x="1842" y="166" class="s8" text-anchor="middle">api/iq-insight-service/v1/*</text>
<text x="1664" y="184" class="n">sự kiện 5.089 dòng · công ty ✅</text>
<text x="1664" y="196.5" class="warn">🔴 GIÁ: 0 dòng — CHƯA NẠP</text>
<text x="1664" y="209.0" class="s8">  dù phủ từ 2006-01-19</text>
<text x="1664" y="221.5" class="new">⭐ NGUỒN BCTC DUY NHẤT</text>
<text x="1664" y="234.0" class="new">  financial-statement (4 section)</text>
<text x="1664" y="246.5" class="new">  statistics-financial (60 chỉ số)</text>
<text x="1664" y="259.0" class="new">  /metrics THEO TỪNG MÃ — khuôn</text>
<text x="1664" y="271.5" class="new">  theo ngành: *a thường *b bank</text>
<text x="1664" y="284.0" class="new">  *i bảo hiểm *s chứng khoán</text>
<text x="1664" y="296.5" class="s8">ver 2 gọi: daily_events.py · load_csv</text>
<rect x="70" y="336" width="1920" height="0" rx="6" fill="rgba(167,139,250,0.16)" stroke="#a78bfa" stroke-width="1"/>
<rect x="70" y="392" width="1960" height="0" fill="none"/>
<rect x="50" y="412" width="985" height="74" rx="6" fill="rgba(251,113,133,0.16)" stroke="#fb7185" stroke-width="1"/>
<text x="62" y="429" class="t">vnstock — CẤM HOÀN TOÀN (v3 còn ghi 'chỉ dùng cho BCTC'; đo 19/08 cho thấy KHÔNG dùng được cả BCTC)</text>
<text x="62" y="444" class="warn">4.0.6: UnboundLocalError 'hosting_service' tại core/utils/env.py:136 — vỡ TRƯỚC khi gọi mạng</text>
<text x="62" y="456.5" class="warn">3.4.1: KeyError 'data' — không parse nổi phản hồi VCI hiện tại. Cùng lúc gọi thẳng VCI thì chạy.</text>
<text x="62" y="469.0" class="s8">Cửa tốt, chỉ lớp bọc hỏng. Ver 2 hiện KHÔNG có tham chiếu nào tới vnstock.</text>
<rect x="1065" y="412" width="985" height="74" rx="6" fill="rgba(167,139,250,0.16)" stroke="#a78bfa" stroke-width="1"/>
<text x="1077" y="429" class="t">BCTC — đường lấy đã xác minh 19/08, nhưng CHƯA CÓ LOADER</text>
<text x="1077" y="444" class="new">VCI IQ: năm 2018–2025 · quý 2018Q1–2026Q2 · lengthReport 5=năm 1–4=quý · CÓ publicDate ⇒ dựng được PIT</text>
<text x="1077" y="456.5" class="new">Đối chiếu VCI vs vnfinancialdata: khớp TỚI TỪNG ĐỒNG. VCI ngang/hơn mọi ngành + độc quyền thuyết minh.</text>
<text x="1077" y="469.0" class="s8">vnfinancialdata 0.1.2 (dataset HF) chỉ còn 1 lý do dùng: back-fill 2011–2017. Không publicDate, phủ ~50% HOSE.</text>
<rect x="50" y="502" width="2000" height="46" rx="6" fill="rgba(251,113,133,0.16)" stroke="#fb7185" stroke-width="1"/>
<text x="62" y="519" class="t">TẦNG A · CỔNG LÚC BẮT — C-01 · C-02 · C-03 · C-04    →    rớt cổng: ops.quarantine (giữ giá trị gốc, KHÔNG mất dòng)</text>
<text x="62" y="534" class="s8">C-01 nay CHỈ GHI NHẬN, không xoá cột. Cổng là ràng buộc trên 4 số: vi phạm chứng minh MỘT số sai, không nói được số nào. Chỉ được bỏ cột khi có giá trị độc lập chỉ đích danh cột đó.</text>
<rect x="50" y="566" width="2000" height="232" rx="12" fill="none" stroke="#34d399" stroke-width="1" stroke-dasharray="12,4"/>
<text x="64" y="584" class="cy" fill="#34d399">② obs — SỔ QUAN SÁT · CHỈ INSERT · Postgres cưỡng chế cấm sửa · ghi CÁI ĐÃ THẤY, không lọc</text>
<rect x="70" y="598" width="470" height="128" rx="6" fill="#0f172a"/>
<rect x="70" y="598" width="470" height="128" rx="6" fill="rgba(52,211,153,0.3)" stroke="#34d399" stroke-width="2"/>
<text x="305" y="618" class="t" text-anchor="middle">obs.price_daily</text>
<text x="305" y="632" class="s8" text-anchor="middle">4 nguồn · 1.839.953+ dòng · 27 phân mảnh</text>
<text x="80" y="650" class="n">PK: source · security_id · trade_date · observed_at</text>
<text x="80" y="662.5" class="s8">observed_at (LÚC TA THẤY) ≠ trade_date</text>
<text x="80" y="675.0" class="s8">payload_hash khử trùng theo nội dung</text>
<text x="80" y="687.5" class="warn">mọi truy vấn PHẢI lọc source — đơn vị khác nhau</text>
<rect x="560" y="598" width="470" height="128" rx="6" fill="#0f172a"/>
<rect x="560" y="598" width="470" height="128" rx="6" fill="rgba(52,211,153,0.3)" stroke="#34d399" stroke-width="2"/>
<text x="795" y="618" class="t" text-anchor="middle">obs.corp_action</text>
<text x="795" y="632" class="s8" text-anchor="middle">14.028 dòng · 3 nguồn</text>
<text x="570" y="650" class="n">VCI 5.089 · DNSE 3.197 · Vietstock</text>
<text x="570" y="662.5" class="s8">DNSE KHÔNG có tỉ lệ dạng số — phải parse</text>
<text x="570" y="675.0" class="s8">  từ câu chữ tiếng Việt (ca_parse.py)</text>
<text x="570" y="687.5" class="s8">C-17 so TẬP với TẬP, cấm .first()</text>
<rect x="1050" y="598" width="470" height="128" rx="6" fill="#0f172a"/>
<rect x="1050" y="598" width="470" height="128" rx="6" fill="rgba(52,211,153,0.3)" stroke="#34d399" stroke-width="2"/>
<text x="1285" y="618" class="t" text-anchor="middle">obs.index_daily</text>
<text x="1285" y="632" class="s8" text-anchor="middle">17.998 dòng · 5 rổ chỉ số</text>
<text x="1060" y="650" class="n">NỀN của lịch giao dịch</text>
<text x="1060" y="662.5" class="s8">lịch dẫn xuất từ đây, không gõ cứng ngày nghỉ</text>
<text x="1060" y="675.0" class="s8">2000-07-28 → nay</text>
<text x="1060" y="687.5" class="s8">lỗi B10 của ver 1: lịch gõ cứng, vỡ 2 lần</text>
<rect x="1540" y="598" width="450" height="128" rx="6" fill="#0f172a"/>
<rect x="1540" y="598" width="450" height="128" rx="6" fill="rgba(167,139,250,0.3)" stroke="#a78bfa" stroke-width="2"/>
<text x="1765" y="618" class="t" text-anchor="middle">obs.financial</text>
<text x="1765" y="632" class="s8" text-anchor="middle">CHƯA CÓ DỮ LIỆU</text>
<text x="1550" y="650" class="new">đích của BCTC — bảng đã thiết kế</text>
<text x="1550" y="662.5" class="new">PK: source · symbol · period · metric</text>
<text x="1550" y="675.0" class="new">                      · observed_at</text>
<text x="1550" y="687.5" class="warn">chưa có loader ⇒ 0 dòng</text>
<rect x="70" y="740" width="1960" height="44" rx="6" fill="rgba(52,211,153,0.16)" stroke="#34d399" stroke-width="1"/>
<text x="82" y="757" class="t">TẦNG B · CỔNG LÚC GHI — Postgres cưỡng chế</text>
<text x="82" y="772" class="s8">C-05 REVOKE UPDATE, DELETE + ALTER DEFAULT PRIVILEGES   ·   C-06 CHECK price_unit · CHECK price_basis   ·   C-07 UNIQUE khoá + payload_hash · ON CONFLICT DO NOTHING</text>
<rect x="50" y="816" width="2000" height="250" rx="12" fill="none" stroke="#22d3ee" stroke-width="1" stroke-dasharray="12,4"/>
<text x="64" y="834" class="cy" fill="#22d3ee">③ market — TẦNG ĐỌC · đơn vị chuẩn VND · CHỈ 197 mã đang cập nhật · nơi DUY NHẤT được phán xét chất lượng</text>
<rect x="70" y="848" width="620" height="200" rx="6" fill="#0f172a"/>
<rect x="70" y="848" width="620" height="200" rx="6" fill="rgba(34,211,238,0.3)" stroke="#22d3ee" stroke-width="2"/>
<text x="380" y="868" class="t" text-anchor="middle">market.px_adj_calc</text>
<text x="380" y="882" class="s8" text-anchor="middle">LỚP TÍNH — mọi phán xét nằm ở đây</text>
<text x="80" y="900" class="s8">Chọn nguồn: ĐẾM Ô, không đếm dòng — obs chỉ-thêm nên</text>
<text x="80" y="912.5" class="s8">nguồn viết lại lịch sử nhiều thì số DÒNG phình</text>
<text x="80" y="925.0" class="n">THỨ TỰ QUY TRÁCH NHIỆM khi bar tự mâu thuẫn:</text>
<text x="80" y="937.5" class="s8">1. vượt TRẦN/SÀN → chắc chắn sai, bỏ ngay</text>
<text x="80" y="950.0" class="s8">2. có NGUỒN THỨ HAI → bỏ đúng cột lệch &gt;1%</text>
<text x="80" y="962.5" class="s8">3. không có nguồn 2 → bỏ high/low</text>
<text x="80" y="975.0" class="warn">Phải theo TỪNG BAR — nhóm chung thì sai</text>
<text x="80" y="987.5" class="ok">→ dựng lại BẢNG px_adj trong MỘT giao dịch</text>
<rect x="710" y="848" width="660" height="200" rx="6" fill="#0f172a"/>
<rect x="710" y="848" width="660" height="200" rx="6" fill="rgba(34,211,238,0.3)" stroke="#22d3ee" stroke-width="2"/>
<text x="1040" y="868" class="t" text-anchor="middle">market.px_adj  ·  px_adj_as_of(ngày)  ·  px_raw</text>
<text x="1040" y="882" class="s8" text-anchor="middle">bảng, không còn là view — làm mới ở bước 7</text>
<text x="720" y="900" class="n">px_adj: 621.941 dòng · 197 mã · mặt bằng HÔM NAY</text>
<text x="720" y="912.5" class="s8">close 100% · volume 100% · open 99,7% · low 98,8% · high 98,7%</text>
<text x="720" y="925.0" class="s8">volume_adj · total_value 88,1%</text>
<text x="720" y="937.5" class="warn">BACKTEST PHẢI DÙNG px_adj_as_of(ngày_đó)</text>
<text x="720" y="950.0" class="s8">adj_as_of(T)(d) = adj_hôm_nay(d) ÷ S(T),  S(T)=adj(T)/thô(T)</text>
<text x="720" y="962.5" class="s8">chạy tới năm 2000 · 4,0s · sai số làm tròn ~0,03%</text>
<text x="720" y="975.0" class="warn">px_raw: O/H/L thô HOSE 98,5% · HNX 0% · UPCoM 0%</text>
<text x="720" y="987.5" class="s8">phép suy raw hỏng ngoài HOSE (E0061, E0063)</text>
<rect x="1390" y="848" width="640" height="200" rx="6" fill="#0f172a"/>
<rect x="1390" y="848" width="640" height="200" rx="6" fill="rgba(34,211,238,0.3)" stroke="#22d3ee" stroke-width="2"/>
<text x="1710" y="868" class="t" text-anchor="middle">market.ca · factor_exchange · trading_calendar · index_member</text>
<text x="1710" y="882" class="s8" text-anchor="middle">bảng tra cứu của tầng đọc</text>
<text x="1400" y="900" class="amb">factor_exchange = (trần+sàn)/2 ÷ close phiên trước</text>
<text x="1400" y="912.5" class="amb">  ĐÁP ÁN — thứ duy nhất không do ta tính</text>
<text x="1400" y="925.0" class="s8">ca_verified: 2.799/3.344 ex-date (83,7%) kiểm chứng được</text>
<text x="1400" y="937.5" class="n">QUY TẮC TẦNG ĐỌC — mỗi cái chữa một lỗi đã xảy ra:</text>
<text x="1400" y="950.0" class="s8">① khoanh nguồn  ② tách quan sát khỏi suy luận</text>
<text x="1400" y="962.5" class="s8">③ chỉ mã đang cập nhật</text>
<text x="1400" y="975.0" class="warn">④ không đáng tin ⇒ NULL, không giữ kèm cờ</text>
<text x="1400" y="987.5" class="warn">   'thiếu còn hơn sai'</text>
<rect x="50" y="1084" width="2000" height="44" rx="6" fill="rgba(52,211,153,0.16)" stroke="#34d399" stroke-width="1"/>
<text x="62" y="1101" class="t">④ NGƯỜI DÙNG — backtest · nghiên cứu alpha · Council · webapp    ·    đọc qua market.*, KHÔNG đọc thẳng obs.*</text>
<text x="62" y="1116" class="s8">Chỉ báo bất biến theo thang giá (RSI · MA · MACD · Bollinger · Ichimoku) an toàn. Rule theo MỨC GIÁ và theo THANH KHOẢN đúng nhờ total_value + volume_adj. Không có dạng scalar — chỉ dạng bảng, nạp thẳng vào Polars.</text>
<rect x="50" y="1150" width="2000" height="190" rx="12" fill="none" stroke="#fbbf24" stroke-width="1" stroke-dasharray="12,4"/>
<text x="64" y="1168" class="cy" fill="#fbbf24">LUỒNG CHẠY HẰNG NGÀY — một điểm vào: 3. Build\chay_hang_ngay.bat  ·  mã thoát lấy của status.py: 0 sạch · 2 có ĐỎ</text>
<rect x="70" y="1182" width="210" height="140" rx="6" fill="#0f172a"/>
<rect x="70" y="1182" width="210" height="140" rx="6" fill="rgba(251,191,36,0.3)" stroke="#fbbf24" stroke-width="2"/>
<text x="175" y="1202" class="t" text-anchor="middle">1</text>
<text x="175" y="1216" class="s8" text-anchor="middle">daily_update.py</text>
<text x="80" y="1234" class="ok">giá NGUỒN CHÍNH</text>
<text x="80" y="1246.5" class="s8">không tham số — tự đọc</text>
<text x="80" y="1259.0" class="s8">vai trò từ DB</text>
<text x="80" y="1271.5" class="s8">so CHÍNH DỮ LIỆU,</text>
<text x="80" y="1284.0" class="s8">ngưỡng 0,2%</text>
<rect x="288" y="1182" width="210" height="140" rx="6" fill="#0f172a"/>
<rect x="288" y="1182" width="210" height="140" rx="6" fill="rgba(251,191,36,0.3)" stroke="#fbbf24" stroke-width="2"/>
<text x="393" y="1202" class="t" text-anchor="middle">2</text>
<text x="393" y="1216" class="s8" text-anchor="middle">--source DNSE</text>
<text x="298" y="1234" class="ok">giá ĐỐI CHỨNG</text>
<text x="298" y="1246.5" class="s8">CÙNG file, CÙNG</text>
<text x="298" y="1259.0" class="s8">mọi cổng</text>
<text x="298" y="1271.5" class="s8">thêm nguồn = thêm</text>
<text x="298" y="1284.0" class="s8">1 mục bảng NGUON{}</text>
<rect x="506" y="1182" width="210" height="140" rx="6" fill="#0f172a"/>
<rect x="506" y="1182" width="210" height="140" rx="6" fill="rgba(251,191,36,0.3)" stroke="#fbbf24" stroke-width="2"/>
<text x="611" y="1202" class="t" text-anchor="middle">3</text>
<text x="611" y="1216" class="s8" text-anchor="middle">load_ssi_sp.py</text>
<text x="516" y="1234" class="ok">giá THÔ + trần/sàn</text>
<text x="516" y="1246.5" class="s8">nguồn duy nhất có</text>
<text x="516" y="1259.0" class="s8">trần/sàn</text>
<text x="516" y="1271.5" class="s8">pageSize trần 250</text>
<text x="516" y="1284.0" class="s8"></text>
<rect x="724" y="1182" width="210" height="140" rx="6" fill="#0f172a"/>
<rect x="724" y="1182" width="210" height="140" rx="6" fill="rgba(251,191,36,0.3)" stroke="#fbbf24" stroke-width="2"/>
<text x="829" y="1202" class="t" text-anchor="middle">4</text>
<text x="829" y="1216" class="s8" text-anchor="middle">load_index.py</text>
<text x="734" y="1234" class="ok">5 rổ chỉ số</text>
<text x="734" y="1246.5" class="s8">chạy TRƯỚC vì lịch</text>
<text x="734" y="1259.0" class="s8">giao dịch dẫn từ đây</text>
<text x="734" y="1271.5" class="s8"></text>
<text x="734" y="1284.0" class="s8"></text>
<rect x="942" y="1182" width="210" height="140" rx="6" fill="#0f172a"/>
<rect x="942" y="1182" width="210" height="140" rx="6" fill="rgba(251,191,36,0.3)" stroke="#fbbf24" stroke-width="2"/>
<text x="1047" y="1202" class="t" text-anchor="middle">5</text>
<text x="1047" y="1216" class="s8" text-anchor="middle">load_index_member</text>
<text x="952" y="1234" class="ok">ẢNH CHỤP rổ</text>
<text x="952" y="1246.5" class="s8">không API nào cho</text>
<text x="952" y="1259.0" class="s8">point-in-time</text>
<text x="952" y="1271.5" class="s8">không chụp =</text>
<text x="952" y="1284.0" class="s8">MẤT VĨNH VIỄN</text>
<rect x="1160" y="1182" width="210" height="140" rx="6" fill="#0f172a"/>
<rect x="1160" y="1182" width="210" height="140" rx="6" fill="rgba(251,191,36,0.3)" stroke="#fbbf24" stroke-width="2"/>
<text x="1265" y="1202" class="t" text-anchor="middle">6</text>
<text x="1265" y="1216" class="s8" text-anchor="middle">daily_events.py</text>
<text x="1170" y="1234" class="ok">sự kiện 3 nguồn</text>
<text x="1170" y="1246.5" class="s8">DNSE · VCI · Vietstock</text>
<text x="1170" y="1259.0" class="s8">C-04 phân trang</text>
<text x="1170" y="1271.5" class="s8">C-17 đối chiếu chéo</text>
<text x="1170" y="1284.0" class="s8"></text>
<rect x="1378" y="1182" width="210" height="140" rx="6" fill="#0f172a"/>
<rect x="1378" y="1182" width="210" height="140" rx="6" fill="rgba(167,139,250,0.3)" stroke="#a78bfa" stroke-width="2"/>
<text x="1483" y="1202" class="t" text-anchor="middle">7</text>
<text x="1483" y="1216" class="s8" text-anchor="middle">lam_moi_tang_doc</text>
<text x="1388" y="1234" class="ok">dựng lại px_adj</text>
<text x="1388" y="1246.5" class="s8">MỘT giao dịch — không</text>
<text x="1388" y="1259.0" class="s8">ai thấy bảng rỗng</text>
<text x="1388" y="1271.5" class="s8">+ C-19 cắt ngang</text>
<text x="1388" y="1284.0" class="s8">theo ngày</text>
<rect x="1596" y="1182" width="210" height="140" rx="6" fill="#0f172a"/>
<rect x="1596" y="1182" width="210" height="140" rx="6" fill="rgba(251,191,36,0.3)" stroke="#fbbf24" stroke-width="2"/>
<text x="1701" y="1202" class="t" text-anchor="middle">8</text>
<text x="1701" y="1216" class="s8" text-anchor="middle">test_bat_bien.py</text>
<text x="1606" y="1234" class="ok">13 bất biến I1–I13</text>
<text x="1606" y="1246.5" class="s8">hỏi: đã áp cho MỌI</text>
<text x="1606" y="1259.0" class="s8">chỗ nó chạm chưa</text>
<text x="1606" y="1271.5" class="s8"></text>
<text x="1606" y="1284.0" class="s8"></text>
<rect x="1814" y="1182" width="210" height="140" rx="6" fill="#0f172a"/>
<rect x="1814" y="1182" width="210" height="140" rx="6" fill="rgba(251,191,36,0.3)" stroke="#fbbf24" stroke-width="2"/>
<text x="1919" y="1202" class="t" text-anchor="middle">9</text>
<text x="1919" y="1216" class="s8" text-anchor="middle">status.py --ghi</text>
<text x="1824" y="1234" class="ok">dead-man 36h</text>
<text x="1824" y="1246.5" class="s8">tuổi TỪNG NGUỒN</text>
<text x="1824" y="1259.0" class="s8">tồn cách ly</text>
<text x="1824" y="1271.5" class="s8">trả lời được cả khi</text>
<text x="1824" y="1284.0" class="s8">job chết im lặng</text>
<rect x="50" y="1360" width="985" height="96" rx="6" fill="rgba(167,139,250,0.16)" stroke="#a78bfa" stroke-width="1"/>
<text x="62" y="1377" class="t">BỐN THAY ĐỔI NGÀY 19/08 — đều từ đo trực tiếp</text>
<text x="62" y="1392" class="new">① vnstock: 'chỉ dùng cho BCTC' → CẤM HOÀN TOÀN (đo: cả 4.0.6 lẫn 3.4.1 đều không lấy được BCTC)</text>
<text x="62" y="1404.5" class="new">② BCTC: xác định đường lấy = VCI IQ, kèm cơ chế khuôn theo ngành và bẫy /metrics theo từng mã</text>
<text x="62" y="1417.0" class="new">③ Thêm phiên bản API từng cửa — 3 cửa KHÔNG đánh version (iBoard ×2, senses-api) = đổi ngầm được</text>
<text x="62" y="1429.5" class="new">④ Ghi rõ cửa nào ver 2 THỰC SỰ gọi, đọc từ code — trước đây suy từ đặc tả và đã sai 2 lần</text>
<rect x="1065" y="1360" width="985" height="96" rx="6" fill="rgba(251,191,36,0.16)" stroke="#fbbf24" stroke-width="1"/>
<text x="1077" y="1377" class="t">CÒN TỒN — không mục nào cho ra SỐ SAI, đều là THIẾU dữ liệu</text>
<text x="1077" y="1392" class="warn">🔴 Vietcap chưa nạp giá — 0 dòng, dù phủ từ 2006 và sạch đúng những ngày iBoard hỏng 2008–09</text>
<text x="1077" y="1404.5" class="amb">🟡 GTGD thiếu 11,9% (74.196 dòng) · O/H/L thô HNX 0% UPCoM 0% · hệ số sự kiện chỉ 83,7% kiểm chứng được</text>
<text x="1077" y="1417.0" class="amb">🟡 BCTC chưa có loader · độ rộng thị trường trống (cần SSI DailyIndex) · ảnh chụp rổ bỏ 178 mã</text>
<text x="1077" y="1429.5" class="warn">🟡 PHỤ THUỘC VER 1 CHƯA GỠ: chay_hang_ngay.bat dùng venv của ver 1; load_ssi_fc_price import ssi_fc</text>
</svg>
